<svg width="2440" height="388" viewBox="0 0 2440 388" fill="none" xmlns="http://www.w3.org/2000/svg">
<path d="M629.429 0L840.805 387.76H778.225L734.616 305.876H522.756L478.629 387.795H414.735L629.429 0ZM708.699 257.834L628.807 108.129L548.569 257.834H708.699Z" fill="#F75800"/>
<path d="M2228.62 0L2440 387.76H2377.42L2333.81 305.876H2121.95L2077.82 387.795H2013.93L2228.62 0ZM2307.89 257.834L2228 108.129L2147.76 257.834H2307.89Z" fill="#F75800"/>
<path d="M1405.06 14.8507H1291.41V66.7255H1405.55C1452.92 66.7255 1482.33 92.6628 1482.33 134.922C1482.33 177.182 1452.92 203.153 1405.55 203.153H1291.41V66.7255H1233.22V387.453H1291.41V254.481H1408.24C1490.69 254.481 1541.83 210.51 1541.83 134.922C1541.83 59.3343 1487.2 14.8507 1405.06 14.8507Z" fill="#F75800"/>
<path d="M57.8805 13.5846H0V66.5544H57.8805V13.5846Z" fill="#F75800"/>
<path d="M185.494 14.4059L115.796 13.6531V66.5544H57.9151V119.524H115.796V66.6912L185.356 66.8281C293.273 67.3756 343.931 123.562 343.931 202.058C343.931 280.555 293.307 335.167 185.356 335.407L115.796 335.475V172.46H57.9151V388H115.796L185.494 387.863C321.781 387.863 402.088 308.545 402.088 201.956C402.088 95.3661 321.781 13.961 185.494 14.4059Z" fill="#F75800"/>
<path d="M1903.39 162.81H1684.17V215.027H1625.94V387.453H1684.17V215.061H1902.73L1903.39 387.453H1961.58V215.027H1903.39V162.81Z" fill="#F75800"/>
<path d="M1961.58 14.8507H1903.39V162.81H1961.58V14.8507Z" fill="#F75800"/>
<path d="M1684.13 14.8507H1625.94V162.81H1684.13V14.8507Z" fill="#F75800"/>
<path d="M951.555 14.8507H893.364V334.893H951.244L951.555 14.8507Z" fill="#F75800"/>
<path d="M1163.24 334.893H951.555V387.453H1163.24V334.893Z" fill="#F75800"/>
</svg>
