<?xml version="1.0" encoding="UTF-8"?><svg id="a" xmlns="http://www.w3.org/2000/svg" xmlns:xlink="http://www.w3.org/1999/xlink" viewBox="0 0 2100 640"><defs><style>.h{fill:#000;}.h,.i,.j,.k{stroke-width:0px;}.i{fill:url(#e);}.j{fill:url(#f);}.k{fill:url(#g);}</style><linearGradient id="e" x1="59.75" y1="474.03" x2="508.82" y2="474.03" gradientUnits="userSpaceOnUse"><stop offset="0" stop-color="#e6adc8"/><stop offset=".82" stop-color="#7467ff"/><stop offset="1" stop-color="#6059de"/></linearGradient><linearGradient id="f" x1="613.07" y1="527.42" x2="367.66" y2="118.99" gradientUnits="userSpaceOnUse"><stop offset="0" stop-color="#92aeff"/><stop offset=".33" stop-color="#7a85ff"/><stop offset=".56" stop-color="#6967ff"/><stop offset=".63" stop-color="#6160f3"/><stop offset=".77" stop-color="#4e4fd4"/><stop offset=".95" stop-color="#2f33a3"/><stop offset="1" stop-color="#252a93"/></linearGradient><linearGradient id="g" x1="143.07" y1="502.34" x2="377.57" y2="42.1" gradientUnits="userSpaceOnUse"><stop offset=".02" stop-color="#4833c1"/><stop offset=".19" stop-color="#5645d2"/><stop offset=".54" stop-color="#7b75fe"/><stop offset=".54" stop-color="#7c76ff"/><stop offset=".63" stop-color="#8179ff"/><stop offset=".95" stop-color="#9285ff"/></linearGradient></defs><g id="b"><g id="c"><path class="h" d="M948.87,113.25h0c-2.01-6-5.02-9.89-8.96-11.59-3.39-1.45-8.09-2.15-14.38-2.15h-54.71c-6.3,0-11,.7-14.38,2.15-3.95,1.7-6.97,5.6-8.94,11.57l-136.86,404.53c-1.2,4.78-1.34,6.67-1.34,7.68,0,4.52,1.7,15.04,17.47,15.04h40.12c8.97,0,14.58-1.31,17.65-4.1,2.82-2.57,5.4-7.56,8.14-15.77l26.44-83.45h153.29l27.04,82.91c2.71,8.11,5.25,13.16,7.97,15.88,3.09,3.11,8.74,4.55,17.8,4.55h42.55c15.77,0,17.47-10.52,17.47-15.04,0-1.6-.41-3.97-1.43-7.98l-134.94-404.22ZM841.79,365.75l53.37-167.27,53.92,167.27h-107.3Z"/><path class="h" d="M1190.55,99.51h-35.25c-8.77,0-14.71,1.41-18.15,4.31-3.64,3.07-5.4,8.77-5.4,17.41v397.53c0,8.66,1.77,14.35,5.4,17.41,3.47,2.95,9.24,4.32,18.15,4.32h35.25c8.9,0,14.66-1.37,18.14-4.31,3.64-3.07,5.41-8.76,5.41-17.41V121.23c0-8.64-1.77-14.33-5.41-17.42-3.44-2.9-9.37-4.31-18.13-4.31Z"/><path class="h" d="M1630.51,99.51h-35.26c-8.97,0-15.24,1.2-19.19,3.66-3.95,2.47-7.83,7.8-11.87,16.33l-95.97,205.38-95.39-205.4c-4.02-8.49-7.89-13.82-11.87-16.31-3.95-2.46-10.22-3.66-19.19-3.66h-35.26c-8.77,0-14.7,1.41-18.15,4.31-3.63,3.07-5.4,8.77-5.4,17.41v397.53c0,8.66,1.77,14.36,5.4,17.41,3.47,2.94,9.24,4.32,18.15,4.32h33.43c8.9,0,14.66-1.37,18.14-4.31,3.64-3.07,5.41-8.76,5.41-17.41v-253.01l59.02,128.24c3.53,7.96,6.78,13.11,9.91,15.75,3.47,2.94,9.43,4.32,18.75,4.32h34.65c9.31,0,15.27-1.37,18.75-4.31,3.13-2.65,6.37-7.8,9.89-15.7l59.04-128.29v253.01c0,8.66,1.77,14.35,5.4,17.41,3.47,2.95,9.24,4.32,18.15,4.32h33.43c8.9,0,14.66-1.37,18.15-4.31,3.64-3.07,5.4-8.77,5.4-17.41V121.23c0-8.63-1.77-14.32-5.41-17.42-3.44-2.9-9.37-4.31-18.13-4.31Z"/><path class="h" d="M1990.91,339.71c-15.65-20.66-39.56-35.97-71.04-45.5l-64.43-20.06c-22.79-7.07-38.6-14.82-46.98-23.03-8.05-7.86-12.14-19.45-12.14-34.45,0-37.74,20.53-56.08,62.77-56.08s63.63,15.11,67.06,46.28c.37,2.83.68,11.31.86,23.88.09,6.35,5.31,11.49,11.64,11.49h.05l58.1-.24c6.38-.03,11.59-5.24,11.61-11.62.02-8.28.05-21.02.05-25.27,0-28.45-8.93-53.08-26.59-73.27-25.42-27.91-64.68-42.06-116.7-42.06-47.79,0-85.5,11.58-112.08,34.42-26.76,23-40.33,55.75-40.33,97.33v5.47c0,27.61,8.5,51.81,25.27,71.92,16.64,19.98,40.39,34.93,70.62,44.45l64.42,20.05c19.86,6.24,34.38,14.33,43.17,24.06,9.77,10.83,14.72,23.3,14.72,37.07,0,17.65-5.99,31.9-17.32,41.21-10.53,8.66-28.27,13.05-52.71,13.05-21.32,0-37.9-4.14-49.28-12.3-11.47-8.21-18.9-20.55-22.07-36.67-.6-3.06-.79-9.66-.92-14.48l-.13-4.08c-.31-7.94-5.31-12.67-13.37-12.67h-.1l-55.14.21c-5.3.02-11.7,2.31-12.17,13.12-.24,5.45-.51,16.7-.46,19.97.52,30.64,11.23,56.4,32.81,78.81,26.2,26.21,67.88,39.49,123.86,39.49,47.37,0,84.65-11.06,110.82-32.86,27.58-22.98,41.56-54.62,41.56-94.02v-7.9c0-27.98-8.55-53.46-25.42-75.72Z"/></g><g id="d"><path class="i" d="M440.92,384.63c-25.69-4.35-51.84-6.57-78.19-6.57-88.33,0-173.17,26.76-248.8,71.81-14.74,8.78-24.2,16.45-30.17,22.28.65,8.12,4.29,15.9,10.59,21.48l78.39,69.51c8.79,7.8,21.22,9.01,31.43,3.38,96.66-53.98,220.46-53.97,317.11,0,4.22,2.33,8.82,3.47,13.38,3.47l-93.75-185.35Z"/><path class="j" d="M638.31,454.74L452.26,86.92c-2.58-5.11-6.41-9.27-10.96-12.18l-78.56,155.32,171.94,339.92c6.48,0,12.89-2.28,18.05-6.86l78.39-69.51c10.84-9.61,13.83-25.76,7.2-38.88Z"/><path class="k" d="M113.94,449.86c52.93-31.53,110.39-54.08,170.39-64.79L441.3,74.74c-4.72-3.03-10.22-4.74-15.98-4.74h-125.16c-11.33.02-21.77,6.71-26.94,16.92L87.17,454.74c-2.78,5.5-3.87,11.53-3.39,17.4,5.97-5.83,15.43-13.5,30.17-22.28Z"/></g></g></svg>