<?xml version="1.0" encoding="UTF-8"?><svg id="a" xmlns="http://www.w3.org/2000/svg" xmlns:xlink="http://www.w3.org/1999/xlink" viewBox="0 0 640 640"><defs><style>.f{fill:url(#c);}.f,.g,.h{stroke-width:0px;}.g{fill:url(#e);}.h{fill:url(#d);}</style><linearGradient id="c" x1="17.01" y1="474.03" x2="466.08" y2="474.03" gradientUnits="userSpaceOnUse"><stop offset="0" stop-color="#e6adc8"/><stop offset=".82" stop-color="#7467ff"/><stop offset="1" stop-color="#6059de"/></linearGradient><linearGradient id="d" x1="570.33" y1="527.42" x2="324.92" y2="118.99" gradientUnits="userSpaceOnUse"><stop offset="0" stop-color="#92aeff"/><stop offset=".33" stop-color="#7a85ff"/><stop offset=".56" stop-color="#6967ff"/><stop offset=".63" stop-color="#6160f3"/><stop offset=".77" stop-color="#4e4fd4"/><stop offset=".95" stop-color="#2f33a3"/><stop offset="1" stop-color="#252a93"/></linearGradient><linearGradient id="e" x1="100.32" y1="502.34" x2="334.83" y2="42.1" gradientUnits="userSpaceOnUse"><stop offset=".02" stop-color="#4833c1"/><stop offset=".19" stop-color="#5645d2"/><stop offset=".54" stop-color="#7b75fe"/><stop offset=".54" stop-color="#7c76ff"/><stop offset=".63" stop-color="#8179ff"/><stop offset=".95" stop-color="#9285ff"/></linearGradient></defs><g id="b"><path class="f" d="M398.18,384.63c-25.69-4.35-51.84-6.57-78.19-6.57-88.33,0-173.17,26.76-248.8,71.81-14.74,8.78-24.2,16.45-30.17,22.28.65,8.12,4.29,15.9,10.59,21.48l78.39,69.51c8.79,7.8,21.22,9.01,31.43,3.38,96.66-53.98,220.46-53.97,317.11,0,4.22,2.33,8.82,3.47,13.38,3.47l-93.75-185.35Z"/><path class="h" d="M595.57,454.74L409.52,86.92c-2.58-5.11-6.41-9.27-10.96-12.18l-78.56,155.32,171.94,339.92c6.48,0,12.89-2.28,18.05-6.86l78.39-69.51c10.84-9.61,13.83-25.76,7.2-38.88Z"/><path class="g" d="M71.2,449.86c52.93-31.53,110.39-54.08,170.39-64.79L398.56,74.74c-4.72-3.03-10.22-4.74-15.98-4.74h-125.16c-11.33.02-21.77,6.71-26.94,16.92L44.43,454.74c-2.78,5.5-3.87,11.53-3.39,17.4,5.97-5.83,15.43-13.5,30.17-22.28Z"/></g></svg>